<svg width="26" height="17" viewBox="0 0 26 17" fill="none" xmlns="http://www.w3.org/2000/svg">
<path d="M0 14.625C0 15.5225 0.727537 16.25 1.625 16.25H24.375C25.2725 16.25 26 15.5225 26 14.625C26 13.7275 25.2725 13 24.375 13H1.625C0.727537 13 0 13.7275 0 14.625ZM0 8.125C0 9.02246 0.727537 9.75 1.625 9.75H24.375C25.2725 9.75 26 9.02246 26 8.125C26 7.22754 25.2725 6.5 24.375 6.5H1.625C0.727537 6.5 0 7.22754 0 8.125ZM1.625 0C0.727537 0 0 0.727537 0 1.625C0 2.52246 0.727537 3.25 1.625 3.25H24.375C25.2725 3.25 26 2.52246 26 1.625C26 0.727537 25.2725 0 24.375 0H1.625Z" fill="black" fill-opacity="0.87"/>
</svg>
